<?xml version="1.0" encoding="iso-8859-1"?>
<!-- Generator: Adobe Illustrator 19.0.0, SVG Export Plug-In . SVG Version: 6.00 Build 0)  -->
<svg version="1.1" id="Layer_1" xmlns="http://www.w3.org/2000/svg" xmlns:xlink="http://www.w3.org/1999/xlink" x="0px" y="0px"
	 viewBox="0 0 511.992 511.992" style="enable-background:new 0 0 511.992 511.992;" xml:space="preserve">
<polyline style="fill:#8B9DA5;" points="494.127,395.117 494.127,222.09 330.145,222.09 330.145,373.106 "/>
<polyline style="fill:#78888E;" points="494.127,229.162 494.127,209.473 330.145,209.473 330.145,229.162 "/>
<rect x="315.271" y="152.505" style="fill:#FD5D65;" width="193.738" height="69.593"/>
<g>
	<rect x="361.345" y="245.608" style="fill:#CDEFF7;" width="32.916" height="45.139"/>
	<rect x="429.999" y="245.608" style="fill:#CDEFF7;" width="32.916" height="45.139"/>
	<rect x="361.345" y="315.197" style="fill:#CDEFF7;" width="32.916" height="45.139"/>
</g>
<rect x="429.999" y="315.197" style="fill:#4F5E60;" width="32.916" height="56.429"/>
<polygon style="fill:#BACBD8;" points="418.715,372.569 418.715,384.998 474.199,392.442 474.199,372.569 "/>
<polyline style="fill:#A4B6C1;" points="338.008,373.482 338.008,200.455 174.026,200.455 174.026,351.471 "/>
<polyline style="fill:#8B9DA5;" points="338.008,208.031 338.008,188.341 174.026,188.341 174.026,208.031 "/>
<rect x="159.153" y="130.869" style="fill:#63DBAF;" width="193.738" height="69.593"/>
<g>
	<rect x="205.227" y="223.973" style="fill:#CDEFF7;" width="32.916" height="45.139"/>
	<rect x="273.881" y="223.973" style="fill:#CDEFF7;" width="32.916" height="45.139"/>
	<rect x="205.227" y="293.562" style="fill:#CDEFF7;" width="32.916" height="45.139"/>
</g>
<rect x="273.881" y="293.562" style="fill:#4F5E60;" width="32.916" height="56.429"/>
<g>
	<polygon style="fill:#BACBD8;" points="262.597,350.934 262.597,363.363 318.081,370.807 318.081,350.934 	"/>
	<polyline style="fill:#BACBD8;" points="181.896,351.997 181.896,178.97 17.915,178.97 17.915,329.986 	"/>
</g>
<polyline style="fill:#A4B6C1;" points="181.896,187.62 181.896,167.93 17.915,167.93 17.915,187.62 "/>
<rect x="3.036" y="109.385" style="fill:#FEC95B;" width="193.738" height="69.593"/>
<g>
	<rect x="49.119" y="202.489" style="fill:#CDEFF7;" width="32.916" height="45.139"/>
	<rect x="117.773" y="202.489" style="fill:#CDEFF7;" width="32.916" height="45.139"/>
	<rect x="49.119" y="272.077" style="fill:#CDEFF7;" width="32.916" height="45.139"/>
</g>
<rect x="117.773" y="272.077" style="fill:#4F5E60;" width="32.916" height="56.429"/>
<polygon style="fill:#BACBD8;" points="106.485,329.449 106.485,341.878 161.969,349.322 161.969,329.449 "/>
<g>
	<path style="fill:#8B9DA5;" d="M85.257,250.851H45.896v-51.586h39.361V250.851z M52.342,244.405h26.47V205.71h-26.47V244.405z"/>
	<rect x="49.119" y="216.196" style="fill:#8B9DA5;" width="31.035" height="6.445"/>
	<path style="fill:#8B9DA5;" d="M153.91,250.851h-39.362v-51.586h39.362V250.851z M120.995,244.405h26.471V205.71h-26.471V244.405z"
		/>
	<rect x="117.773" y="216.196" style="fill:#8B9DA5;" width="31.036" height="6.445"/>
	<path style="fill:#8B9DA5;" d="M85.257,320.445H45.896v-51.587h39.361V320.445z M52.342,313.999h26.47v-38.696h-26.47V313.999z"/>
	<rect x="49.119" y="285.785" style="fill:#8B9DA5;" width="31.035" height="6.445"/>
	<polygon style="fill:#8B9DA5;" points="153.91,328.507 147.465,328.507 147.465,275.302 120.995,275.302 120.995,328.507 
		114.549,328.507 114.549,268.857 153.91,268.857 	"/>
	<polygon style="fill:#8B9DA5;" points="165.192,349.322 158.747,349.322 158.747,332.672 109.708,332.672 109.708,341.878 
		103.262,341.878 103.262,326.226 165.192,326.226 	"/>
	<path style="fill:#8B9DA5;" d="M241.372,272.338h-39.361v-51.588h39.361L241.372,272.338L241.372,272.338z M208.457,265.893h26.47
		v-38.697h-26.47V265.893z"/>
	<rect x="205.237" y="237.68" style="fill:#8B9DA5;" width="31.035" height="6.445"/>
	<path style="fill:#8B9DA5;" d="M310.026,272.338h-39.362v-51.588h39.362V272.338z M277.11,265.893h26.471v-38.697H277.11V265.893z"
		/>
	<rect x="273.892" y="237.68" style="fill:#8B9DA5;" width="31.036" height="6.445"/>
	<path style="fill:#8B9DA5;" d="M241.372,341.932h-39.361v-51.586h39.361L241.372,341.932L241.372,341.932z M208.457,335.486h26.47
		v-38.695h-26.47V335.486z"/>
	<rect x="205.237" y="307.269" style="fill:#8B9DA5;" width="31.035" height="6.445"/>
	<polygon style="fill:#8B9DA5;" points="310.026,349.995 303.58,349.995 303.58,296.79 277.11,296.79 277.11,349.995 
		270.665,349.995 270.665,290.345 310.026,290.345 	"/>
	<polygon style="fill:#8B9DA5;" points="321.31,370.28 314.865,370.28 314.865,354.156 265.826,354.156 265.826,362.836 
		259.381,362.836 259.381,347.711 321.31,347.711 	"/>
</g>
<g>
	<path style="fill:#78888E;" d="M397.487,293.968h-39.361v-51.587h39.361V293.968z M364.572,287.523h26.47v-38.696h-26.47V287.523z"
		/>
	<rect x="361.345" y="259.316" style="fill:#78888E;" width="31.035" height="6.445"/>
	<path style="fill:#78888E;" d="M466.142,293.968H426.78v-51.587h39.362V293.968z M433.225,287.523h26.471v-38.696h-26.471V287.523z
		"/>
	<rect x="429.999" y="259.316" style="fill:#78888E;" width="31.036" height="6.445"/>
	<path style="fill:#78888E;" d="M397.487,363.561h-39.361v-51.586h39.361V363.561z M364.572,357.116h26.47v-38.695h-26.47V357.116z"
		/>
	<rect x="361.345" y="328.904" style="fill:#78888E;" width="31.035" height="6.445"/>
	<polygon style="fill:#78888E;" points="466.142,371.624 459.696,371.624 459.696,318.421 433.225,318.421 433.225,371.624 
		426.78,371.624 426.78,311.976 466.142,311.976 	"/>
	<polygon style="fill:#78888E;" points="477.429,391.239 470.983,391.239 470.983,375.79 421.945,375.79 421.945,383.793 
		415.499,383.793 415.499,369.345 477.429,369.345 	"/>
</g>
<rect x="-1.433" y="355.511" transform="matrix(-0.9911 -0.1331 0.1331 -0.9911 461.5378 754.7643)" style="fill:#4F5E60;" width="514.857" height="12.89"/>
<g>
</g>
<g>
</g>
<g>
</g>
<g>
</g>
<g>
</g>
<g>
</g>
<g>
</g>
<g>
</g>
<g>
</g>
<g>
</g>
<g>
</g>
<g>
</g>
<g>
</g>
<g>
</g>
<g>
</g>
</svg>
